<?xml version="1.0" standalone="no"?>
<!DOCTYPE svg PUBLIC "-//W3C//DTD SVG 20010904//EN"
 "http://www.w3.org/TR/2001/REC-SVG-20010904/DTD/svg10.dtd">
<svg version="1.0" xmlns="http://www.w3.org/2000/svg"
 width="500.000000pt" height="500.000000pt" viewBox="0 0 500.000000 500.000000"
 preserveAspectRatio="xMidYMid meet">

<g transform="translate(0.000000,500.000000) scale(0.100000,-0.100000)"
fill="#000000" stroke="none">
<path d="M2316 4859 c-616 -85 -1046 -561 -1046 -1158 0 -449 236 -859 623
-1084 435 -252 973 -209 1378 112 285 227 459 595 459 972 0 569 -383 1023
-965 1144 -95 20 -350 28 -449 14z m447 -373 c291 -87 486 -284 570 -574 31
-110 30 -320 -2 -442 -55 -205 -172 -382 -329 -499 -304 -225 -700 -225 -1004
0 -157 117 -274 294 -329 499 -32 119 -32 338 -1 453 80 293 315 511 622 578
129 28 353 21 473 -15z"/>
<path d="M2165 2190 c-1090 -85 -1763 -541 -1968 -1335 -41 -157 -60 -306 -61
-466 l-1 -145 29 -38 c16 -21 47 -47 70 -57 40 -18 114 -19 2266 -19 2152 0
2226 1 2266 19 23 10 54 36 70 57 l29 38 -1 145 c-3 506 -202 969 -544 1269
-322 282 -746 446 -1335 518 -152 18 -654 27 -820 14z m832 -364 c656 -89
1066 -311 1303 -706 89 -148 164 -383 185 -577 l7 -63 -1992 0 -1992 0 7 63
c12 110 56 289 96 394 161 414 510 690 1039 823 164 41 271 58 535 84 101 10
705 -3 812 -18z"/>
</g>
</svg>
