<?xml version="1.0" standalone="no"?>
<!DOCTYPE svg PUBLIC "-//W3C//DTD SVG 20010904//EN"
 "http://www.w3.org/TR/2001/REC-SVG-20010904/DTD/svg10.dtd">
<svg version="1.0" xmlns="http://www.w3.org/2000/svg"
 width="512.000000pt" height="512.000000pt" viewBox="0 0 512.000000 512.000000"
 preserveAspectRatio="xMidYMid meet">

<g transform="translate(0.000000,512.000000) scale(0.100000,-0.100000)"
fill="#ffffff" stroke="none">
<path d="M1901 5109 c-135 -26 -257 -88 -355 -180 -88 -83 -145 -167 -188
-280 -31 -81 -32 -89 -32 -239 0 -150 1 -158 32 -239 17 -46 50 -112 72 -145
25 -39 234 -256 582 -604 l543 -542 556 557 557 558 46 95 c54 111 76 202 76
320 0 119 -22 210 -76 320 -39 79 -62 110 -134 181 -72 73 -101 94 -180 132
-123 59 -231 82 -355 74 -166 -11 -286 -58 -414 -161 l-77 -63 -40 34 c-55 49
-160 116 -219 140 -110 46 -281 64 -394 42z m302 -332 c59 -30 97 -61 212
-176 l139 -141 146 145 c120 118 157 149 212 175 129 60 274 49 396 -30 67
-43 112 -95 150 -177 24 -52 27 -70 27 -163 0 -182 16 -160 -494 -673 l-436
-437 -418 417 c-230 230 -431 436 -446 458 -137 197 -69 486 139 595 117 62
257 64 373 7z"/>
<path d="M4550 2810 c-64 -12 -127 -36 -180 -70 -25 -16 -209 -194 -410 -395
l-365 -365 -106 0 -106 0 -6 88 c-6 105 -31 175 -92 256 -45 61 -127 129 -185
154 -98 42 -96 42 -1045 42 l-910 0 -573 -573 -572 -572 0 -688 0 -687 378 0
377 0 310 310 310 310 1120 0 1120 0 711 713 c786 788 758 756 786 915 56 326
-238 619 -562 562z m132 -300 c73 -21 137 -102 138 -175 0 -90 17 -71 -673
-762 l-652 -653 -1120 0 -1120 0 -310 -310 -310 -310 -167 0 -168 0 0 472 0
473 487 487 488 488 835 0 c794 0 837 -1 870 -19 59 -32 93 -83 98 -149 5 -75
-21 -131 -80 -169 l-42 -28 -623 -3 -623 -2 0 -150 0 -150 614 0 c357 0 635 4
665 10 68 13 145 47 198 87 l43 33 242 0 242 0 411 409 c351 350 416 410 450
419 54 13 64 14 107 2z"/>
</g>
</svg>
