<?xml version="1.0" standalone="no"?>
<!DOCTYPE svg PUBLIC "-//W3C//DTD SVG 20010904//EN"
 "http://www.w3.org/TR/2001/REC-SVG-20010904/DTD/svg10.dtd">
<svg version="1.0" xmlns="http://www.w3.org/2000/svg"
 width="512.000000pt" height="512.000000pt" viewBox="0 0 512.000000 512.000000"
 preserveAspectRatio="xMidYMid meet">

<g transform="translate(0.000000,512.000000) scale(0.100000,-0.100000)"
fill="#ffffff" stroke="none">
<path d="M469 5106 c-86 -31 -139 -79 -187 -170 l-27 -51 0 -365 c0 -361 0
-365 23 -412 53 -108 148 -169 274 -176 l78 -5 0 -168 0 -169 -103 0 c-59 0
-127 -6 -161 -15 -172 -45 -308 -167 -350 -316 -15 -50 -16 -199 -14 -1480 l3
-1424 34 -70 c65 -133 208 -245 351 -275 40 -8 412 -10 1410 -8 1297 3 1357 4
1398 22 41 18 45 18 110 1 164 -42 318 -26 472 47 l85 40 572 571 571 572 40
85 c94 197 94 394 0 589 -33 69 -58 103 -139 186 -110 113 -185 163 -300 200
-187 59 -392 34 -554 -67 -27 -18 -161 -142 -297 -277 l-247 -245 -3 765 -3
764 -32 68 c-59 124 -171 216 -308 252 -37 9 -103 15 -177 15 l-118 0 0 169 0
169 88 4 c137 6 228 63 284 176 23 47 23 51 23 412 l0 365 -27 52 c-39 73 -78
114 -140 149 l-53 29 -1270 2 c-1021 2 -1277 0 -1306 -11z m451 -581 l0 -295
-185 0 -185 0 0 288 c0 159 3 292 7 295 3 4 87 7 185 7 l178 0 0 -295z m690 0
l0 -295 -195 0 -195 0 0 295 0 295 195 0 195 0 0 -295z m670 0 l0 -295 -185 0
-185 0 0 295 0 295 185 0 185 0 0 -295z m688 -2 l2 -293 -195 0 -195 0 0 295
0 295 193 -2 192 -3 3 -292z m-398 -763 l0 -170 -820 0 -820 0 0 170 0 170
820 0 820 0 0 -170z m558 -491 c88 -43 82 33 82 -964 l0 -880 -136 -135 c-74
-74 -156 -163 -181 -198 -115 -159 -150 -378 -91 -572 20 -65 80 -184 98 -195
6 -3 10 -10 10 -16 0 -6 -461 -8 -1243 -7 l-1244 3 -41 29 c-23 16 -51 43 -62
61 -20 32 -20 51 -20 1410 l0 1377 22 30 c11 17 44 41 72 54 l51 24 1319 0
1320 0 44 -21z m1415 -1249 c81 -30 196 -140 239 -228 30 -60 33 -75 33 -157
0 -144 -20 -176 -267 -422 l-203 -203 -283 283 -283 283 208 205 c124 123 224
213 248 224 105 49 203 54 308 15z m-688 -940 l280 -280 -215 -215 c-261 -262
-289 -280 -435 -280 -123 0 -181 27 -285 134 -84 84 -114 143 -126 244 -7 61
15 161 48 216 20 34 435 461 448 461 3 0 131 -126 285 -280z"/>
<path d="M1716 2590 c-16 -5 -40 -19 -54 -32 -49 -45 -52 -68 -52 -353 l0
-265 -272 0 c-255 0 -275 -1 -306 -20 -98 -60 -94 -194 8 -254 33 -20 54 -21
302 -24 l267 -3 3 -274 c3 -258 4 -275 24 -301 37 -50 70 -68 124 -68 54 0 87
18 124 68 20 26 21 43 24 302 l3 274 242 0 c133 0 262 5 287 11 126 29 161
169 65 259 l-27 25 -283 3 -284 3 -3 279 c-3 263 -4 280 -24 306 -43 58 -107
83 -168 64z"/>
</g>
</svg>
