<?xml version="1.0" standalone="no"?>
<!DOCTYPE svg PUBLIC "-//W3C//DTD SVG 20010904//EN"
 "http://www.w3.org/TR/2001/REC-SVG-20010904/DTD/svg10.dtd">
<svg version="1.0" xmlns="http://www.w3.org/2000/svg"
 width="512.000000pt" height="512.000000pt" viewBox="0 0 512.000000 512.000000"
 preserveAspectRatio="xMidYMid meet">

<g transform="translate(0.000000,512.000000) scale(0.100000,-0.100000)"
fill="#ffffff" stroke="none">
<path d="M3998 4939 c-68 -35 -78 -71 -78 -279 0 -161 2 -185 20 -220 23 -45
80 -80 130 -80 50 0 107 35 130 80 18 35 20 59 20 220 0 161 -2 185 -20 220
-37 73 -127 99 -202 59z"/>
<path d="M3165 4596 c-75 -32 -110 -115 -81 -190 25 -65 258 -292 310 -301
102 -20 186 43 186 139 0 60 -18 87 -138 209 -147 150 -199 177 -277 143z"/>
<path d="M4855 4591 c-38 -18 -243 -217 -279 -271 -9 -14 -16 -44 -16 -70 0
-108 104 -178 207 -139 46 17 270 246 289 295 29 76 -7 159 -83 190 -43 19
-70 17 -118 -5z"/>
<path d="M3965 4046 c-84 -21 -147 -57 -211 -121 -98 -97 -134 -197 -134 -370
l0 -95 -150 0 -150 0 0 140 c0 166 -13 206 -80 240 -39 20 -56 20 -1580 20
-1524 0 -1541 0 -1580 -20 -26 -13 -47 -34 -60 -60 -20 -39 -20 -56 -20 -1570
0 -1514 0 -1531 20 -1570 37 -72 67 -80 305 -80 187 0 206 -2 211 -18 36 -111
128 -229 227 -293 95 -61 174 -84 297 -84 146 0 236 32 345 120 l55 45 55 -45
c109 -88 199 -120 345 -120 123 0 202 23 297 84 99 64 191 182 227 293 5 17
42 18 581 18 539 0 576 -1 581 -17 52 -160 190 -299 352 -355 95 -32 249 -32
344 0 162 56 300 195 352 355 5 15 24 17 206 17 233 0 263 8 300 80 19 38 20
58 20 665 l0 625 -200 703 c-110 386 -209 721 -220 744 -23 50 -78 83 -140 83
l-40 0 0 95 c0 172 -36 272 -135 371 -112 113 -269 158 -420 120z m175 -306
c60 -31 80 -78 80 -190 l0 -90 -150 0 -150 0 0 90 c0 110 20 159 78 189 48 26
93 26 142 1z m-1120 -1030 l0 -850 -1360 0 -1360 0 0 850 0 850 1360 0 1360 0
0 -850z m600 155 c0 -181 4 -314 11 -347 34 -159 148 -283 314 -341 18 -7 183
-13 415 -16 l384 -6 38 -130 37 -130 1 -517 0 -518 -110 0 c-97 0 -111 2 -116
18 -36 111 -128 229 -227 293 -94 61 -174 84 -297 84 -123 0 -203 -23 -297
-84 -99 -64 -191 -182 -227 -293 -5 -17 -42 -18 -581 -18 -539 0 -576 1 -581
18 -52 159 -190 298 -352 354 -95 32 -249 32 -343 0 -74 -25 -148 -69 -195
-114 l-32 -30 -56 46 c-110 89 -200 121 -346 121 -123 0 -202 -23 -297 -84
-99 -64 -191 -182 -227 -293 -5 -16 -20 -18 -121 -18 l-115 0 0 350 0 350
1450 0 c1434 0 1451 0 1490 20 26 13 47 34 60 60 20 38 20 57 20 780 l0 740
150 0 150 0 0 -295z m937 -55 l100 -350 -310 0 c-451 0 -427 -23 -427 410 l0
290 269 0 268 0 100 -350z m-3412 -1867 c92 -31 165 -134 165 -233 0 -60 -30
-130 -75 -175 -98 -98 -252 -98 -350 0 -98 98 -98 252 0 350 69 70 164 91 260
58z m800 0 c92 -31 165 -134 165 -233 0 -60 -30 -130 -75 -175 -98 -98 -252
-98 -350 0 -98 98 -98 252 0 350 69 70 164 91 260 58z m2210 0 c92 -31 165
-134 165 -233 0 -60 -30 -130 -75 -175 -98 -98 -252 -98 -350 0 -98 98 -98
252 0 350 69 70 164 91 260 58z"/>
<path d="M1488 3239 c-65 -34 -78 -75 -78 -239 l0 -140 -140 0 c-166 0 -206
-13 -240 -80 -25 -50 -25 -90 0 -140 34 -67 74 -80 240 -80 l140 0 0 -140 c0
-166 13 -206 80 -240 50 -25 90 -25 140 0 67 34 80 74 80 240 l0 140 140 0
c166 0 206 13 240 80 25 50 25 90 0 140 -34 67 -74 80 -240 80 l-140 0 0 140
c0 121 -3 146 -20 180 -37 73 -127 99 -202 59z"/>
</g>
</svg>
