<?xml version="1.0" standalone="no"?>
<!DOCTYPE svg PUBLIC "-//W3C//DTD SVG 20010904//EN"
 "http://www.w3.org/TR/2001/REC-SVG-20010904/DTD/svg10.dtd">
<svg version="1.0" xmlns="http://www.w3.org/2000/svg"
 width="512.000000pt" height="512.000000pt" viewBox="0 0 512.000000 512.000000"
 preserveAspectRatio="xMidYMid meet">

<g transform="translate(0.000000,512.000000) scale(0.100000,-0.100000)"
fill="#ffffff" stroke="none">
<path d="M788 5099 c-23 -12 -46 -35 -58 -59 -19 -38 -20 -58 -20 -488 l0
-449 -137 -6 c-106 -3 -152 -10 -197 -26 -166 -59 -291 -185 -348 -349 l-23
-67 0 -1605 0 -1605 23 -66 c57 -166 185 -294 350 -351 l67 -23 2115 0 2115 0
67 23 c165 57 293 185 350 351 l23 66 0 1505 0 1505 -23 67 c-57 164 -182 290
-348 349 -45 16 -91 23 -196 26 l-138 6 0 49 c0 27 -7 63 -16 81 -22 44 -1020
1044 -1066 1068 -36 18 -70 19 -1270 19 -1208 -1 -1234 -1 -1270 -21z m2324
-647 l3 -367 33 -67 c38 -77 92 -130 171 -167 l56 -26 368 -3 367 -3 0 -259 0
-260 -727 0 -728 0 -132 263 c-73 145 -152 290 -177 323 -73 97 -186 170 -308
199 -51 12 -155 15 -545 15 l-483 0 0 360 0 360 1050 0 1049 0 3 -368z m543
-92 l240 -240 -227 0 c-193 0 -229 2 -242 16 -14 13 -16 49 -16 240 0 123 1
224 3 224 1 0 110 -108 242 -240z m-1630 -587 c22 -11 51 -33 65 -48 14 -14
99 -173 190 -353 155 -307 167 -328 205 -349 l40 -23 1041 0 c1170 0 1100 4
1179 -75 80 -79 75 3 75 -1275 0 -1278 5 -1196 -75 -1275 -81 -82 112 -75
-2185 -75 -2297 0 -2104 -7 -2185 75 -81 80 -75 -51 -75 1675 0 1726 -6 1595
75 1675 76 77 39 74 870 72 737 -2 740 -2 780 -24z m2630 -190 c63 -21 127
-85 148 -148 10 -27 17 -80 17 -121 l0 -72 -67 26 c-57 20 -91 26 -205 30
l-138 5 0 148 0 149 98 0 c65 0 115 -6 147 -17z"/>
<path d="M2188 2579 c-69 -36 -78 -70 -78 -289 l0 -190 -190 0 c-221 0 -254
-9 -290 -80 -19 -37 -20 -58 -20 -370 0 -312 1 -333 20 -370 36 -71 69 -80
290 -80 l190 0 0 -190 c0 -221 9 -254 80 -290 37 -19 58 -20 370 -20 312 0
333 1 370 20 71 36 80 69 80 290 l0 190 190 0 c221 0 254 9 290 80 19 37 20
58 20 370 0 312 -1 333 -20 370 -36 71 -69 80 -290 80 l-190 0 0 190 c0 221
-9 254 -80 290 -37 19 -58 20 -372 20 -312 -1 -335 -2 -370 -21z m522 -469 c0
-171 2 -195 20 -230 36 -71 69 -80 290 -80 l190 0 0 -150 0 -150 -190 0 c-221
0 -254 -9 -290 -80 -18 -35 -20 -59 -20 -230 l0 -190 -150 0 -150 0 0 190 c0
221 -9 254 -80 290 -35 18 -59 20 -230 20 l-190 0 0 150 0 150 190 0 c221 0
254 9 290 80 18 35 20 59 20 230 l0 190 150 0 150 0 0 -190z"/>
</g>
</svg>
