<?xml version="1.0" standalone="no"?>
<!DOCTYPE svg PUBLIC "-//W3C//DTD SVG 20010904//EN"
 "http://www.w3.org/TR/2001/REC-SVG-20010904/DTD/svg10.dtd">
<svg version="1.0" xmlns="http://www.w3.org/2000/svg"
 width="1000.000000pt" height="1000.000000pt" viewBox="0 0 1000.000000 1000.000000"
 preserveAspectRatio="xMidYMid meet">

<g transform="translate(0.000000,1000.000000) scale(0.100000,-0.100000)"
fill="#000000" stroke="none">
<path d="M8150 9679 c-1147 -65 -2231 -378 -3085 -892 -606 -365 -1255 -929
-1770 -1540 l-40 -47 -715 -55 c-400 -31 -740 -62 -772 -70 -149 -38 -258
-103 -362 -217 -45 -49 -223 -309 -542 -793 -262 -396 -487 -741 -500 -767
-140 -275 15 -628 311 -707 22 -5 303 -51 624 -101 322 -49 586 -91 587 -93 2
-2 -2 -44 -8 -94 -20 -158 12 -317 94 -458 34 -59 171 -201 907 -938 872 -874
925 -923 1045 -976 117 -51 271 -71 395 -52 40 6 75 10 77 8 2 -2 45 -266 94
-588 50 -321 96 -602 101 -624 20 -72 71 -158 128 -216 153 -153 389 -192 579
-95 26 13 371 238 767 500 484 319 744 497 793 542 114 104 179 213 217 362 8
32 39 372 70 772 l55 715 47 40 c254 214 573 523 784 760 450 505 794 1014
1027 1520 434 941 651 2023 629 3145 -7 345 -16 410 -82 545 -75 154 -170 253
-315 329 -105 55 -189 76 -345 86 -166 11 -590 10 -795 -1z m865 -563 c53 -23
74 -43 97 -94 17 -39 20 -76 25 -310 27 -1271 -284 -2503 -864 -3432 -582
-932 -1546 -1825 -2518 -2331 l-150 -78 -1367 1366 -1366 1366 53 108 c183
365 482 811 788 1175 390 466 827 871 1310 1216 771 550 1746 894 2842 1003
273 27 438 34 780 31 282 -3 336 -6 370 -20z m-6205 -2510 c0 -3 -35 -60 -79
-128 -128 -201 -237 -396 -356 -642 -130 -266 -214 -468 -296 -716 -45 -136
-62 -176 -76 -177 -21 -3 -1092 163 -1099 170 -3 3 200 315 450 694 403 609
461 692 497 712 38 22 75 26 443 56 395 32 516 39 516 31z m1040 -2761 c662
-662 1202 -1206 1200 -1209 -3 -2 -70 -25 -150 -50 -166 -53 -459 -127 -602
-152 -90 -16 -100 -16 -140 -1 -35 14 -199 173 -880 854 -724 726 -838 844
-849 880 -10 35 -8 59 10 160 39 211 181 723 200 723 3 0 548 -542 1211 -1205z
m2760 -1072 c0 -21 -16 -228 -34 -459 -31 -388 -35 -425 -57 -463 -20 -36
-105 -96 -712 -497 -379 -250 -691 -453 -694 -450 -7 7 -173 1078 -170 1099 1
14 38 31 166 73 455 150 1011 418 1401 676 47 31 88 57 93 57 4 1 7 -16 7 -36z"/>
<path d="M6605 8104 c-326 -36 -613 -172 -840 -399 -200 -200 -325 -436 -382
-721 -24 -122 -24 -376 0 -498 37 -186 104 -352 200 -498 312 -476 873 -710
1432 -597 261 53 496 180 690 373 155 155 263 328 330 529 57 171 69 252 69
442 0 190 -12 271 -69 442 -155 465 -557 814 -1046 908 -84 16 -308 27 -384
19z m345 -574 c279 -78 492 -287 576 -565 24 -78 27 -108 28 -225 0 -112 -3
-149 -22 -215 -92 -320 -337 -544 -657 -600 -110 -19 -170 -19 -280 0 -529 93
-829 657 -611 1149 108 243 346 427 618 475 82 15 261 5 348 -19z"/>
<path d="M1413 3396 c-23 -7 -56 -23 -75 -34 -18 -12 -245 -234 -505 -494
-357 -357 -477 -484 -492 -518 -31 -68 -29 -171 5 -238 60 -120 195 -176 330
-137 59 16 63 20 547 503 350 350 494 500 510 532 32 67 35 162 7 228 -25 57
-92 125 -145 148 -51 21 -134 26 -182 10z"/>
<path d="M2195 2556 c-40 -19 -227 -201 -951 -927 -859 -862 -903 -907 -919
-958 -21 -66 -16 -150 13 -207 24 -46 84 -105 131 -129 52 -26 139 -31 202
-10 51 16 96 60 958 919 726 724 908 911 927 951 48 101 24 235 -57 312 -80
75 -206 96 -304 49z"/>
<path d="M3030 1743 c-38 -13 -117 -87 -533 -502 -346 -345 -494 -499 -510
-531 -31 -63 -31 -178 0 -236 56 -106 133 -154 248 -154 122 0 116 -5 647 527
528 529 522 521 521 643 0 77 -17 122 -70 180 -74 83 -192 111 -303 73z"/>
</g>
</svg>
