<?xml version="1.0" encoding="utf-8"?>
<!-- Svg Vector Icons : http://www.onlinewebfonts.com/icon -->
<!DOCTYPE svg PUBLIC "-//W3C//DTD SVG 1.1//EN" "http://www.w3.org/Graphics/SVG/1.1/DTD/svg11.dtd">
<svg version="1.1" xmlns="http://www.w3.org/2000/svg" xmlns:xlink="http://www.w3.org/1999/xlink" x="0px" y="0px" viewBox="0 0 1000 1000" enable-background="new 0 0 1000 1000" xml:space="preserve" fill="#ffffff">
<metadata> Svg Vector Icons : http://www.onlinewebfonts.com/icon </metadata>
<g><path d="M226.7,272.7c37.7,0,71.9,15.3,96.6,40s40,58.9,40,96.6c0,28.6-8.8,55.2-23.9,77.2c-3.9-14.1-9.6-27.8-16.5-41.1c4.2-11.2,6.5-23.3,6.5-36c0-28.4-11.5-54-30.1-72.6c-18.6-18.6-44.3-30.1-72.6-30.1c-28.4,0-54,11.5-72.6,30.1c-18.6,18.6-30.1,44.3-30.1,72.6c0,28.4,11.5,54,30.1,72.6c17.2,17.2,40.4,28.3,66.1,29.9c2.4,9,2.7,17.7-0.1,25.5c-1,2.7-2.3,5.5-3.9,8.2c-33.5-2.5-63.7-17.2-86.1-39.6c-24.7-24.7-40-58.9-40-96.6c0-37.7,15.3-71.9,40-96.6C154.8,288,189,272.7,226.7,272.7L226.7,272.7z"/><path d="M284,445.5c55.4,91.4,17.4,134.7-29.8,188.5c-31.8,36.2-68.8,78.4-68.8,153.8c0,39.2,19.9,73.6,51.3,99.5c35.6,29.3,85.4,47.9,138.5,51.3c7.2,0.5,13.8,0.7,19.8,0.7c66.5,0,126.8-22,171.6-61.4c44.4-39.1,73.5-95.8,78-165.6c0.4-6.8,0.7-13.3,0.7-19.2l0-134.1c-25.6-2.7-50.8-10.1-74.2-22.2c-60.7-31.3-108.7-93.6-118-186.7L426.2,82.8c-0.7-7.3,0-14.3,2.2-20.8c2.2-6.6,5.8-12.7,10.7-18.2c4.9-5.4,10.6-9.5,17.1-12.4c6.6-2.9,13.5-4.4,20.6-4.4h62.4c7.7-10.3,20-16.9,33.9-16.9c23.4,0,42.4,19,42.4,42.4c0,23.4-19,42.4-42.4,42.4c-13.9,0-26.2-6.7-33.9-17h-62.4c0,0-0.1,0-0.1,0l0,0.1l21.5,213.7c11.3,44.9,43.1,76.2,82.9,94c26.5,11.8,56.6,17.7,86.9,17.7c30.3,0,60.4-5.9,86.9-17.7c39.8-17.8,71.6-49.1,82.9-94l21.5-213.7v-0.1l-0.1,0h-62.4c-7.7,10.3-20.1,17-33.9,17c-23.4,0-42.4-19-42.4-42.4c0-23.4,19-42.4,42.4-42.4c13.9,0,26.2,6.7,33.9,17h62.4c7.1,0,14,1.5,20.6,4.4c6.5,2.9,12.2,7,17.1,12.4c5,5.5,8.6,11.6,10.7,18.2c2.2,6.6,2.9,13.6,2.2,20.8l-26.9,267.2c-9.4,93.1-57.3,155.4-118,186.7c-21.7,11.2-45,18.4-68.7,21.5l0,134.8c0,8.1-0.2,15.6-0.7,22.4c-5.4,84.1-41,152.8-95.1,200.6C546.3,963.6,474.1,990,395,990c-8.1,0-15.8-0.2-23-0.7c-63.6-4.1-123.9-26.9-167.5-62.9c-42.7-35.2-69.8-82.9-69.8-138.6c0-94.6,43.8-144.5,81.3-187.2c31.6-36,57.5-65.4,25.7-125.2c-4.8,1.1-9.9,1.7-15,1.7c-37.5,0-67.8-30.4-67.8-67.8c0-37.5,30.4-67.8,67.8-67.8s67.8,30.4,67.8,67.8C294.5,422.6,290.7,435.1,284,445.5L284,445.5z M508.9,376.9c13.5,56.2,46,94.4,85.5,114.8c22.8,11.8,48.1,17.6,73.6,17.6c25.4,0,50.7-5.9,73.6-17.6c39.5-20.4,72-58.6,85.5-114.8c-16.6,16.6-36.5,29.8-58.4,39.6c-31,13.8-65.9,20.8-100.6,20.8s-69.6-6.9-100.6-20.8C545.4,406.7,525.5,393.5,508.9,376.9L508.9,376.9z M859.2,77.6C859.1,77.6,859.1,77.6,859.2,77.6C859.2,77.7,859.3,77.7,859.2,77.6L859.2,77.6z M476.7,77.6C476.6,77.7,476.6,77.7,476.7,77.6C476.7,77.6,476.8,77.6,476.7,77.6L476.7,77.6z"/></g>
</svg>